<svg id="Capa_1" enable-background="new 0 0 512 512" height="512" viewBox="0 0 512 512" width="512" xmlns="http://www.w3.org/2000/svg" xmlns:xlink="http://www.w3.org/1999/xlink"><linearGradient id="lg1"><stop offset="0" stop-color="#dea861"/><stop offset=".2843" stop-color="#f5bc44"/><stop offset=".4562" stop-color="#ffc538"/><stop offset=".6808" stop-color="#fad53d"/><stop offset=".8982" stop-color="#f7e041"/></linearGradient><linearGradient id="SVGID_1_" gradientUnits="userSpaceOnUse" x1="331.786" x2="405.237" xlink:href="#lg1" y1="464.679" y2="464.679"/><linearGradient id="SVGID_2_" gradientUnits="userSpaceOnUse" x1="348.348" x2="406.833" xlink:href="#lg1" y1="423.488" y2="423.488"/><linearGradient id="SVGID_3_" gradientUnits="userSpaceOnUse" x1="206.642" x2="302.105" y1="271.393" y2="271.393"><stop offset=".1018" stop-color="#41464e"/><stop offset=".5876" stop-color="#4b515a"/><stop offset="1" stop-color="#565d68"/></linearGradient><linearGradient id="lg2"><stop offset="0" stop-color="#565d68"/><stop offset=".1002" stop-color="#5c636f"/><stop offset=".6138" stop-color="#78808f"/><stop offset=".8982" stop-color="#838b9b"/></linearGradient><linearGradient id="SVGID_4_" gradientUnits="userSpaceOnUse" x1="223.858" x2="299.617" xlink:href="#lg2" y1="250.809" y2="250.809"/><linearGradient id="SVGID_5_" gradientUnits="userSpaceOnUse" x1="40.354" x2="478.031" xlink:href="#lg2" y1="284.099" y2="31.405"/><g><path d="m402.842 483.616v-54.895l-50.468 4.437v54.144c-.056.561-.056 1.118 0 1.671.31 3.043 2.324 5.913 6.118 8.104 9.133 5.273 25.087 4.612 35.633-1.477 5.933-3.426 8.891-7.84 8.717-11.984z" fill="url(#SVGID_1_)"/><circle cx="377.591" cy="423.488" fill="url(#SVGID_2_)" r="29.242"/><path d="m427.889 273.096v-119.265l-343.541 30.205v114.153c-.382 3.816-.383 7.612 0 11.371 2.109 20.715 15.82 40.254 41.645 55.163 62.172 35.895 170.769 31.394 242.559-10.054 40.386-23.318 60.52-53.361 59.337-81.573z" fill="url(#SVGID_3_)"/><path d="m0 176.268v49.22l.029-.001c-.159 5.563 2.493 11.195 8 14.375l190.514 109.993c17.685 10.21 39.473 10.21 57.157 0l248.27-143.339c5.353-3.091 8.03-8.499 8.03-13.908v-48.502z" fill="url(#SVGID_4_)"/><path d="m8.03 190.176 190.514 109.993c17.685 10.21 39.473 10.21 57.157 0l248.269-143.339c10.706-6.181 10.706-21.634 0-27.816l-190.513-109.993c-17.685-10.21-39.473-10.21-57.157 0l-248.27 143.339c-10.706 6.181-10.706 21.634 0 27.816z" fill="url(#SVGID_5_)"/><g><path d="m377.591 416.626c-6.946 0-12.577-5.631-12.577-12.577v-166.992l-115.302-66.57c-6.016-3.473-8.077-11.166-4.604-17.181 3.474-6.015 11.162-8.077 17.181-4.604l121.59 70.201c3.891 2.246 6.289 6.399 6.289 10.892v174.253c0 6.947-5.631 12.578-12.577 12.578z" fill="#f7e041"/></g></g></svg>